<svg width="1600" height="634" viewBox="0 0 1600 634" fill="none" xmlns="http://www.w3.org/2000/svg">
<g filter="url(#filter0_b_113_43)">
<circle cx="411.978" cy="226.721" r="81.9104" fill="white"/>
</g>
<g filter="url(#filter1_b_113_43)">
<g opacity="0.2">
<mask id="path-2-inside-1_113_43" fill="white">
<path d="M502.05 227.525C502.05 276.969 461.969 317.05 412.525 317.05C363.082 317.05 323 276.969 323 227.525C323 178.082 363.082 138 412.525 138C461.969 138 502.05 178.082 502.05 227.525ZM334.638 227.525C334.638 270.541 369.509 305.412 412.525 305.412C455.541 305.412 490.412 270.541 490.412 227.525C490.412 184.509 455.541 149.638 412.525 149.638C369.509 149.638 334.638 184.509 334.638 227.525Z"/>
</mask>
<path d="M502.05 227.525C502.05 276.969 461.969 317.05 412.525 317.05C363.082 317.05 323 276.969 323 227.525C323 178.082 363.082 138 412.525 138C461.969 138 502.05 178.082 502.05 227.525ZM334.638 227.525C334.638 270.541 369.509 305.412 412.525 305.412C455.541 305.412 490.412 270.541 490.412 227.525C490.412 184.509 455.541 149.638 412.525 149.638C369.509 149.638 334.638 184.509 334.638 227.525Z" stroke="url(#paint0_linear_113_43)" stroke-width="25.2406" stroke-linecap="round" mask="url(#path-2-inside-1_113_43)"/>
</g>
<path d="M412.525 311.722C445.339 311.722 473.769 292.951 487.662 265.56C483.493 275.344 477.841 284.561 471.013 292.627C455.696 310.721 434.953 322.49 412.525 322.49C390.097 322.49 369.355 310.721 354.038 292.627C347.21 284.561 341.557 275.344 337.388 265.56C351.281 292.951 379.711 311.722 412.525 311.722Z" stroke="url(#paint1_linear_113_43)" stroke-width="12.6203" stroke-linecap="round"/>
</g>
<path d="M395.158 254.166L401.065 263H409.495L400.156 249.875L408.385 237.759H400.106L395.158 245.786H395.007L390.06 237.759H381.781L390.009 249.875L380.67 263H389.101L395.007 254.166H395.158ZM428.302 239.324C421.84 239.324 420.124 241.495 420.124 241.495H419.972V234.125H439.408V227.663H411.996V248.36H420.023C420.023 248.36 420.931 245.483 426.787 245.483C431.028 245.483 433.855 247.199 433.855 251.137C433.855 254.772 431.381 256.791 426.888 256.791C421.689 256.791 419.972 254.368 419.972 252.399H411.996C411.996 259.315 417.297 263.505 426.888 263.505C436.379 263.505 441.831 259.062 441.831 251.137C441.831 243.262 436.227 239.324 428.302 239.324Z" fill="#AD00FF"/>
<path d="M352.155 194.087L352.936 193.669C352.936 193.669 353.849 195.11 356.181 195.11C358.634 195.11 360.174 193.581 360.174 191.15C360.174 190.402 359.998 189.841 359.998 189.841L360.823 189.39L360.218 188.224L359.426 188.653C359.426 188.653 358.59 187.19 356.181 187.19C353.728 187.19 352.188 188.719 352.188 191.15C352.188 191.997 352.364 192.481 352.364 192.481L351.55 192.921L352.155 194.087ZM354.003 191.15C354.003 189.797 354.751 188.73 356.181 188.73C357.38 188.73 357.853 189.5 357.853 189.5L354.025 191.579C354.025 191.579 354.003 191.359 354.003 191.15ZM358.359 191.15C358.359 192.503 357.611 193.57 356.181 193.57C354.982 193.57 354.509 192.811 354.509 192.811L358.337 190.743C358.337 190.743 358.359 190.952 358.359 191.15ZM370.807 189.511C370.807 188.015 369.619 187.19 367.562 187.19C365.505 187.19 364.317 188.07 364.317 189.456C364.317 192.492 369.311 191.392 369.311 192.756C369.311 193.449 368.662 193.702 367.628 193.702C366.638 193.702 365.934 193.482 365.934 192.668V192.36H364.119V192.635C364.119 194.263 365.384 195.11 367.628 195.11C369.795 195.11 371.126 194.252 371.126 192.745C371.126 189.665 366.132 190.963 366.132 189.445C366.132 188.862 366.77 188.598 367.562 188.598C368.519 188.598 368.992 188.961 368.992 189.511V189.709H370.807V189.511ZM371.845 188.818H374.474V195H376.212V188.818H378.841V187.3H371.845V188.818ZM379.886 195H386.2V193.537H381.624V191.755H385.485V190.347H381.624V188.763H386.2V187.3H379.886V195ZM392.987 187.3H387.465V188.763H389.357V193.537H387.465V195H392.987V193.537H391.095V188.763H392.987V187.3ZM398.064 192.382H400.066C400.066 192.382 399.703 193.57 398.031 193.57C396.546 193.57 395.908 192.503 395.908 191.15C395.908 189.797 396.656 188.73 398.086 188.73C399.142 188.73 399.824 189.313 400.11 190.16H401.98C401.606 188.312 400.187 187.19 398.086 187.19C395.633 187.19 394.093 188.719 394.093 191.15C394.093 193.581 395.578 195.11 397.976 195.11C399.67 195.11 400.374 193.988 400.374 193.988H400.44V195H402.013V191.04H398.064V192.382ZM403.723 195H410.037V193.537H405.461V191.755H409.322V190.347H405.461V188.763H410.037V187.3H403.723V195ZM413.26 192.349H414.866L416.56 195H418.518L416.604 192.008C416.604 192.008 417.979 191.623 417.979 189.797C417.979 188.103 417.033 187.3 414.822 187.3H411.522V195H413.26V192.349ZM416.164 189.83C416.164 190.578 415.713 190.886 414.822 190.886H413.26V188.763H414.822C415.702 188.763 416.164 189.071 416.164 189.83ZM423.217 195.11C425.252 195.11 426.814 194.197 426.814 192.228V187.3H425.076V192.118C425.076 193.207 424.163 193.57 423.217 193.57C422.271 193.57 421.358 193.207 421.358 192.118V187.3H419.62V192.228C419.62 194.197 421.182 195.11 423.217 195.11ZM433.301 195H435.919V187.3H434.181V192.415L434.423 193.394H434.258L433.906 192.415L431.134 187.3H428.516V195H430.254V189.885L430.012 188.906H430.177L430.529 189.885L433.301 195ZM441.43 192.382H443.432C443.432 192.382 443.069 193.57 441.397 193.57C439.912 193.57 439.274 192.503 439.274 191.15C439.274 189.797 440.022 188.73 441.452 188.73C442.508 188.73 443.19 189.313 443.476 190.16H445.346C444.972 188.312 443.553 187.19 441.452 187.19C438.999 187.19 437.459 188.719 437.459 191.15C437.459 193.581 438.944 195.11 441.342 195.11C443.036 195.11 443.74 193.988 443.74 193.988H443.806V195H445.379V191.04H441.43V192.382ZM449.785 195H452.909C455.406 195 456.891 193.581 456.891 191.15C456.891 188.719 455.406 187.3 452.909 187.3H449.785V195ZM452.909 193.482H451.523V188.818H452.909C454.35 188.818 455.076 189.786 455.076 191.15C455.076 192.514 454.35 193.482 452.909 193.482ZM458.433 195H464.747V193.537H460.171V191.755H464.032V190.347H460.171V188.763H464.747V187.3H458.433V195ZM467.97 192.349H469.576L471.27 195H473.228L471.314 192.008C471.314 192.008 472.689 191.623 472.689 189.797C472.689 188.103 471.743 187.3 469.532 187.3H466.232V195H467.97V192.349ZM470.874 189.83C470.874 190.578 470.423 190.886 469.532 190.886H467.97V188.763H469.532C470.412 188.763 470.874 189.071 470.874 189.83ZM359.061 204.3H356.993L353.968 208.018V204.3H352.23V212H353.968V208.205L357.169 212H359.237L355.937 208.117L359.061 204.3ZM367.548 208.15C367.548 205.719 366.008 204.19 363.555 204.19C361.102 204.19 359.562 205.719 359.562 208.15C359.562 210.581 361.102 212.11 363.555 212.11C366.008 212.11 367.548 210.581 367.548 208.15ZM365.733 208.15C365.733 209.503 364.985 210.57 363.555 210.57C362.125 210.57 361.377 209.503 361.377 208.15C361.377 206.797 362.125 205.73 363.555 205.73C364.985 205.73 365.733 206.797 365.733 208.15ZM373.87 212H376.488V204.3H374.75V209.415L374.992 210.394H374.827L374.475 209.415L371.703 204.3H369.085V212H370.823V206.885L370.581 205.906H370.746L371.098 206.885L373.87 212ZM385.277 204.3H383.451L381.482 210.262H381.328L379.359 204.3H377.533L380.206 212H382.604L385.277 204.3ZM386.326 212H392.64V210.537H388.064V208.755H391.925V207.347H388.064V205.763H392.64V204.3H386.326V212ZM395.863 209.349H397.469L399.163 212H401.121L399.207 209.008C399.207 209.008 400.582 208.623 400.582 206.797C400.582 205.103 399.636 204.3 397.425 204.3H394.125V212H395.863V209.349ZM398.767 206.83C398.767 207.578 398.316 207.886 397.425 207.886H395.863V205.763H397.425C398.305 205.763 398.767 206.071 398.767 206.83ZM408.636 206.511C408.636 205.015 407.448 204.19 405.391 204.19C403.334 204.19 402.146 205.07 402.146 206.456C402.146 209.492 407.14 208.392 407.14 209.756C407.14 210.449 406.491 210.702 405.457 210.702C404.467 210.702 403.763 210.482 403.763 209.668V209.36H401.948V209.635C401.948 211.263 403.213 212.11 405.457 212.11C407.624 212.11 408.955 211.252 408.955 209.745C408.955 206.665 403.961 207.963 403.961 206.445C403.961 205.862 404.599 205.598 405.391 205.598C406.348 205.598 406.821 205.961 406.821 206.511V206.709H408.636V206.511ZM415.69 204.3H410.168V205.763H412.06V210.537H410.168V212H415.69V210.537H413.798V205.763H415.69V204.3ZM424.782 208.15C424.782 205.719 423.242 204.19 420.789 204.19C418.336 204.19 416.796 205.719 416.796 208.15C416.796 210.581 418.336 212.11 420.789 212.11C423.242 212.11 424.782 210.581 424.782 208.15ZM422.967 208.15C422.967 209.503 422.219 210.57 420.789 210.57C419.359 210.57 418.611 209.503 418.611 208.15C418.611 206.797 419.359 205.73 420.789 205.73C422.219 205.73 422.967 206.797 422.967 208.15ZM431.104 212H433.722V204.3H431.984V209.415L432.226 210.394H432.061L431.709 209.415L428.937 204.3H426.319V212H428.057V206.885L427.815 205.906H427.98L428.332 206.885L431.104 212ZM441.84 206.511C441.84 205.015 440.652 204.19 438.595 204.19C436.538 204.19 435.35 205.07 435.35 206.456C435.35 209.492 440.344 208.392 440.344 209.756C440.344 210.449 439.695 210.702 438.661 210.702C437.671 210.702 436.967 210.482 436.967 209.668V209.36H435.152V209.635C435.152 211.263 436.417 212.11 438.661 212.11C440.828 212.11 442.159 211.252 442.159 209.745C442.159 206.665 437.165 207.963 437.165 206.445C437.165 205.862 437.803 205.598 438.595 205.598C439.552 205.598 440.025 205.961 440.025 206.511V206.709H441.84V206.511ZM445.33 209.349H446.936L448.63 212H450.588L448.674 209.008C448.674 209.008 450.049 208.623 450.049 206.797C450.049 205.103 449.103 204.3 446.892 204.3H443.592V212H445.33V209.349ZM448.234 206.83C448.234 207.578 447.783 207.886 446.892 207.886H445.33V205.763H446.892C447.772 205.763 448.234 206.071 448.234 206.83ZM456.201 204.3H453.968L450.866 212H452.692L453.22 210.669H456.938L457.477 212H459.303L456.201 204.3ZM456.366 209.261H453.792L455.024 206.016H455.134L456.366 209.261ZM458.69 205.818H461.319V212H463.057V205.818H465.686V204.3H458.69V205.818ZM466.731 212H473.045V210.537H468.469V208.755H472.33V207.347H468.469V205.763H473.045V204.3H466.731V212Z" fill="#AD00FF"/>
<g filter="url(#filter2_b_113_43)">
<circle cx="665.868" cy="393.132" r="81.9104" fill="white"/>
</g>
<g opacity="0.2">
<mask id="path-7-inside-2_113_43" fill="white">
<path d="M755.05 393.525C755.05 442.969 714.969 483.05 665.525 483.05C616.082 483.05 576 442.969 576 393.525C576 344.082 616.082 304 665.525 304C714.969 304 755.05 344.082 755.05 393.525ZM587.638 393.525C587.638 436.541 622.509 471.412 665.525 471.412C708.541 471.412 743.412 436.541 743.412 393.525C743.412 350.509 708.541 315.638 665.525 315.638C622.509 315.638 587.638 350.509 587.638 393.525Z"/>
</mask>
<path d="M755.05 393.525C755.05 442.969 714.969 483.05 665.525 483.05C616.082 483.05 576 442.969 576 393.525C576 344.082 616.082 304 665.525 304C714.969 304 755.05 344.082 755.05 393.525ZM587.638 393.525C587.638 436.541 622.509 471.412 665.525 471.412C708.541 471.412 743.412 436.541 743.412 393.525C743.412 350.509 708.541 315.638 665.525 315.638C622.509 315.638 587.638 350.509 587.638 393.525Z" stroke="url(#paint2_linear_113_43)" stroke-width="25.2406" stroke-linecap="round" mask="url(#path-7-inside-2_113_43)"/>
</g>
<path d="M741.212 356.595C727.529 328.606 698.779 309.328 665.525 309.328C632.272 309.328 603.521 328.605 589.838 356.595C594.06 346.199 599.92 336.364 607.069 327.788C622.412 309.379 643.151 297.363 665.525 297.363C687.9 297.363 708.638 309.379 723.982 327.788C731.13 336.364 736.99 346.199 741.212 356.595Z" stroke="url(#paint3_linear_113_43)" stroke-width="12.6203" stroke-linecap="round"/>
<path d="M599.404 399.771H606.572V423.144H614.548V387.807H607.783L599.404 394.824V399.771ZM620.613 405.476C620.613 416.178 626.772 423.649 637.424 423.649C648.075 423.649 654.234 416.178 654.234 405.476C654.234 394.774 648.075 387.303 637.424 387.303C626.772 387.303 620.613 394.774 620.613 405.476ZM645.905 405.476C645.905 411.836 643.027 416.582 637.424 416.582C631.82 416.582 628.943 411.836 628.943 405.476C628.943 399.115 631.82 394.37 637.424 394.37C643.027 394.37 645.905 399.115 645.905 405.476ZM659.289 405.476C659.289 416.178 665.447 423.649 676.099 423.649C686.75 423.649 692.909 416.178 692.909 405.476C692.909 394.774 686.75 387.303 676.099 387.303C665.447 387.303 659.289 394.774 659.289 405.476ZM684.58 405.476C684.58 411.836 681.702 416.582 676.099 416.582C670.496 416.582 667.618 411.836 667.618 405.476C667.618 399.115 670.496 394.37 676.099 394.37C681.702 394.37 684.58 399.115 684.58 405.476ZM697.964 405.476C697.964 416.178 704.123 423.649 714.774 423.649C725.426 423.649 731.584 416.178 731.584 405.476C731.584 394.774 725.426 387.303 714.774 387.303C704.123 387.303 697.964 394.774 697.964 405.476ZM723.255 405.476C723.255 411.836 720.378 416.582 714.774 416.582C709.171 416.582 706.293 411.836 706.293 405.476C706.293 399.115 709.171 394.37 714.774 394.37C720.378 394.37 723.255 399.115 723.255 405.476Z" fill="#2030C4"/>
<path d="M630.17 345.604H627.798L624.327 349.87V345.604H622.333V354.438H624.327V350.084L628 354.438H630.372L626.586 349.983L630.17 345.604ZM636.49 345.604H633.929L630.37 354.438H632.465L633.07 352.911H637.336L637.954 354.438H640.049L636.49 345.604ZM636.68 351.296H633.727L635.14 347.573H635.266L636.68 351.296ZM646.001 350.753L645.9 349.693L644.247 345.604H641.054V354.438H643.048V348.57L642.821 347.447H643.035L643.338 348.57L644.954 352.318H647.2L648.815 348.57L649.118 347.447H649.333L649.106 348.57V354.438H651.1V345.604H647.907L646.254 349.693L646.153 350.753H646.001ZM655.114 352.154H656.83C659.468 352.154 660.641 350.993 660.641 348.885C660.641 346.765 659.468 345.604 656.83 345.604H653.12V354.438H655.114V352.154ZM658.559 348.885C658.559 349.958 657.953 350.475 656.83 350.475H655.114V347.283H656.83C657.953 347.283 658.559 347.813 658.559 348.885ZM666.575 345.604H664.013L660.454 354.438H662.549L663.154 352.911H667.42L668.039 354.438H670.133L666.575 345.604ZM666.764 351.296H663.811L665.224 347.573H665.35L666.764 351.296ZM675.06 351.435H677.356C677.356 351.435 676.94 352.798 675.022 352.798C673.318 352.798 672.586 351.573 672.586 350.021C672.586 348.469 673.444 347.245 675.085 347.245C676.296 347.245 677.079 347.914 677.407 348.885H679.552C679.123 346.765 677.495 345.478 675.085 345.478C672.27 345.478 670.504 347.232 670.504 350.021C670.504 352.81 672.207 354.564 674.959 354.564C676.902 354.564 677.71 353.277 677.71 353.277H677.786V354.438H679.59V349.895H675.06V351.435ZM687.042 354.438H690.046V345.604H688.052V351.472L688.329 352.596H688.14L687.736 351.472L684.556 345.604H681.552V354.438H683.546V348.57L683.269 347.447H683.458L683.862 348.57L687.042 354.438ZM692.065 354.438H699.309V352.76H694.059V350.715H698.489V349.1H694.059V347.283H699.309V345.604H692.065V354.438ZM706.502 354.438H709.506V345.604H707.512V351.472L707.79 352.596H707.6L707.197 351.472L704.016 345.604H701.013V354.438H703.007V348.57L702.729 347.447H702.918L703.322 348.57L706.502 354.438ZM642.669 363.604H636.334V365.283H638.505V370.76H636.334V372.438H642.669V370.76H640.499V365.283H642.669V363.604ZM649.384 368.753L649.283 367.693L647.63 363.604H644.437V372.438H646.431V366.57L646.204 365.447H646.418L646.721 366.57L648.337 370.318H650.583L652.199 366.57L652.501 365.447H652.716L652.489 366.57V372.438H654.483V363.604H651.29L649.637 367.693L649.536 368.753H649.384ZM662.549 370.798C661.451 370.798 661.085 370.141 661.085 369.321V368.841H659.091V369.321C659.091 371.441 660.265 372.564 662.549 372.564C664.821 372.564 666.007 371.441 666.007 369.321V363.604H660.644V365.346H664.013V369.321C664.013 370.141 663.647 370.798 662.549 370.798ZM673.076 363.604H670.514L666.955 372.438H669.05L669.656 370.911H673.921L674.54 372.438H676.635L673.076 363.604ZM673.265 369.296H670.312L671.725 365.573H671.852L673.265 369.296ZM683.899 372.438H685.893V363.604H683.899V366.961H679.633V363.604H677.639V372.438H679.633V368.703H683.899V372.438ZM689.912 369.397H691.754L693.698 372.438H695.944L693.748 369.006C693.748 369.006 695.326 368.564 695.326 366.469C695.326 364.525 694.241 363.604 691.704 363.604H687.918V372.438H689.912V369.397ZM693.244 366.507C693.244 367.365 692.726 367.718 691.704 367.718H689.912V365.283H691.704C692.714 365.283 693.244 365.636 693.244 366.507Z" fill="#2030C4"/>
<g filter="url(#filter3_b_113_43)">
<circle cx="936.91" cy="239.91" r="81.9104" fill="white"/>
</g>
<g opacity="0.2">
<mask id="path-12-inside-3_113_43" fill="white">
<path d="M1026.05 239.525C1026.05 288.969 985.969 329.05 936.525 329.05C887.082 329.05 847 288.969 847 239.525C847 190.082 887.082 150 936.525 150C985.969 150 1026.05 190.082 1026.05 239.525ZM858.638 239.525C858.638 282.541 893.509 317.412 936.525 317.412C979.541 317.412 1014.41 282.541 1014.41 239.525C1014.41 196.509 979.541 161.638 936.525 161.638C893.509 161.638 858.638 196.509 858.638 239.525Z"/>
</mask>
<path d="M1026.05 239.525C1026.05 288.969 985.969 329.05 936.525 329.05C887.082 329.05 847 288.969 847 239.525C847 190.082 887.082 150 936.525 150C985.969 150 1026.05 190.082 1026.05 239.525ZM858.638 239.525C858.638 282.541 893.509 317.412 936.525 317.412C979.541 317.412 1014.41 282.541 1014.41 239.525C1014.41 196.509 979.541 161.638 936.525 161.638C893.509 161.638 858.638 196.509 858.638 239.525Z" stroke="url(#paint4_linear_113_43)" stroke-width="25.2406" stroke-linecap="round" mask="url(#path-12-inside-3_113_43)"/>
</g>
<path d="M936.525 323.722C969.791 323.722 998.552 304.43 1012.23 276.423C1008 286.837 1002.14 296.691 994.981 305.282C979.637 323.701 958.898 335.725 936.525 335.725C914.152 335.725 893.414 323.701 878.07 305.282C870.912 296.691 865.045 286.837 860.823 276.423C874.499 304.43 903.259 323.722 936.525 323.722Z" stroke="url(#paint5_linear_113_43)" stroke-width="12.6203" stroke-linecap="round"/>
<path d="M912.26 273H920.236V265.529H924.93V258.966H920.236V237.663H909.685L892.017 258.916V265.529H912.26V273ZM912.613 243.216H913.37L912.26 247.255V258.966H901.255V258.764L910.846 247.255L912.613 243.216ZM936.284 269.466C936.284 266.993 934.568 265.428 931.993 265.428C929.419 265.428 927.702 266.993 927.702 269.466C927.702 271.94 929.419 273.505 931.993 273.505C934.568 273.505 936.284 271.94 936.284 269.466ZM970.409 248.012C970.409 243.216 966.472 237.158 956.022 237.158C945.32 237.158 940.323 245.084 940.323 255.18V255.937C940.323 266.488 945.118 273.505 956.275 273.505C965.765 273.505 971.722 268.962 971.722 261.44C971.722 254.574 966.169 250.031 957.688 250.031C951.328 250.031 948.955 253.11 948.955 253.11H948.753C948.753 247.759 951.075 243.872 956.073 243.872C961.272 243.872 961.979 247.759 961.979 248.012H970.409ZM956.376 256.19C960.515 256.19 963.393 258.108 963.393 261.49C963.393 264.772 960.717 266.791 956.376 266.791C952.438 266.791 949.359 264.923 949.359 261.49C949.359 258.007 952.539 256.19 956.376 256.19Z" fill="#AD00FF"/>
<path d="M906.282 196.996H908.578C908.578 196.996 908.162 198.359 906.244 198.359C904.54 198.359 903.808 197.135 903.808 195.583C903.808 194.031 904.666 192.806 906.307 192.806C907.518 192.806 908.301 193.475 908.629 194.447H910.774C910.345 192.327 908.717 191.04 906.307 191.04C903.493 191.04 901.726 192.794 901.726 195.583C901.726 198.372 903.429 200.126 906.181 200.126C908.124 200.126 908.932 198.839 908.932 198.839H909.008V200H910.812V195.457H906.282V196.996ZM914.768 196.959H916.611L918.554 200H920.801L918.605 196.567C918.605 196.567 920.182 196.126 920.182 194.031C920.182 192.087 919.097 191.166 916.56 191.166H912.774V200H914.768V196.959ZM918.1 194.068C918.1 194.927 917.583 195.28 916.56 195.28H914.768V192.844H916.56C917.57 192.844 918.1 193.198 918.1 194.068ZM927.24 191.166H924.678L921.119 200H923.214L923.82 198.473H928.085L928.704 200H930.799L927.24 191.166ZM927.429 196.858H924.476L925.889 193.135H926.016L927.429 196.858ZM931.803 200H935.388C938.252 200 939.956 198.372 939.956 195.583C939.956 192.794 938.252 191.166 935.388 191.166H931.803V200ZM935.388 198.258H933.797V192.907H935.388C937.041 192.907 937.874 194.018 937.874 195.583C937.874 197.148 937.041 198.258 935.388 198.258ZM944.818 200H948.402C951.267 200 952.971 198.372 952.971 195.583C952.971 192.794 951.267 191.166 948.402 191.166H944.818V200ZM948.402 198.258H946.812V192.907H948.402C950.055 192.907 950.888 194.018 950.888 195.583C950.888 197.148 950.055 198.258 948.402 198.258ZM954.739 200H961.983V198.322H956.733V196.277H961.163V194.662H956.733V192.844H961.983V191.166H954.739V200ZM965.681 196.959H967.523L969.467 200H971.713L969.517 196.567C969.517 196.567 971.095 196.126 971.095 194.031C971.095 192.087 970.01 191.166 967.473 191.166H963.687V200H965.681V196.959ZM969.013 194.068C969.013 194.927 968.495 195.28 967.473 195.28H965.681V192.844H967.473C968.483 192.844 969.013 193.198 969.013 194.068ZM885.369 216.322H880.56V216.246L885.306 210.844V209.166H878.061V210.844H882.731V210.92L877.986 216.322V218H885.369V216.322ZM891.068 218.126C893.402 218.126 895.194 217.079 895.194 214.82V209.166H893.2V214.693C893.2 215.943 892.153 216.359 891.068 216.359C889.982 216.359 888.935 215.943 888.935 214.693V209.166H886.941V214.82C886.941 217.079 888.733 218.126 891.068 218.126ZM897.147 218H899.141V214.782H903.369V213.166H899.141V210.844H904.252V209.166H897.147V218ZM907.632 214.959H909.475L911.419 218H913.665L911.469 214.567C911.469 214.567 913.047 214.126 913.047 212.031C913.047 210.087 911.961 209.166 909.425 209.166H905.638V218H907.632V214.959ZM910.964 212.068C910.964 212.927 910.447 213.28 909.425 213.28H907.632V210.844H909.425C910.434 210.844 910.964 211.198 910.964 212.068ZM921.076 209.166H914.74V210.844H916.911V216.322H914.74V218H921.076V216.322H918.905V210.844H921.076V209.166ZM922.843 218H930.088V216.322H924.837V214.277H929.267V212.662H924.837V210.844H930.088V209.166H922.843V218ZM931.791 218H935.375C938.24 218 939.944 216.372 939.944 213.583C939.944 210.794 938.24 209.166 935.375 209.166H931.791V218ZM935.375 216.258H933.785V210.907H935.375C937.028 210.907 937.861 212.018 937.861 213.583C937.861 215.148 937.028 216.258 935.375 216.258ZM941.712 218H948.956V216.322H943.706V214.277H948.136V212.662H943.706V210.844H948.956V209.166H941.712V218ZM956.15 218H959.153V209.166H957.159V215.034L957.437 216.157H957.248L956.844 215.034L953.663 209.166H950.66V218H952.654V212.132L952.376 211.008H952.566L952.969 212.132L956.15 218ZM967.432 218H969.426V209.166H967.432V212.523H963.167V209.166H961.173V218H963.167V214.264H967.432V218ZM971.451 218H978.695V216.322H973.445V214.277H977.875V212.662H973.445V210.844H978.695V209.166H971.451V218ZM986.482 209.166H980.146V210.844H982.317V216.322H980.146V218H986.482V216.322H984.311V210.844H986.482V209.166ZM987.429 210.907H990.446V218H992.44V210.907H995.456V209.166H987.429V210.907Z" fill="#AD00FF"/>
<g filter="url(#filter4_b_113_43)">
<circle cx="1189.91" cy="406.236" r="81.9104" fill="white"/>
</g>
<g opacity="0.2">
<mask id="path-17-inside-4_113_43" fill="white">
<path d="M1279.05 406.525C1279.05 455.969 1238.97 496.05 1189.53 496.05C1140.08 496.05 1100 455.969 1100 406.525C1100 357.082 1140.08 317 1189.53 317C1238.97 317 1279.05 357.082 1279.05 406.525ZM1111.64 406.525C1111.64 449.541 1146.51 484.412 1189.53 484.412C1232.54 484.412 1267.41 449.541 1267.41 406.525C1267.41 363.509 1232.54 328.638 1189.53 328.638C1146.51 328.638 1111.64 363.509 1111.64 406.525Z"/>
</mask>
<path d="M1279.05 406.525C1279.05 455.969 1238.97 496.05 1189.53 496.05C1140.08 496.05 1100 455.969 1100 406.525C1100 357.082 1140.08 317 1189.53 317C1238.97 317 1279.05 357.082 1279.05 406.525ZM1111.64 406.525C1111.64 449.541 1146.51 484.412 1189.53 484.412C1232.54 484.412 1267.41 449.541 1267.41 406.525C1267.41 363.509 1232.54 328.638 1189.53 328.638C1146.51 328.638 1111.64 363.509 1111.64 406.525Z" stroke="url(#paint6_linear_113_43)" stroke-width="25.2406" stroke-linecap="round" mask="url(#path-17-inside-4_113_43)"/>
</g>
<path d="M1189.53 322.328C1156.17 322.328 1127.34 341.726 1113.71 369.856C1117.94 359.313 1123.85 349.326 1131.08 340.625C1146.43 322.135 1167.16 310.055 1189.53 310.055C1211.89 310.055 1232.62 322.135 1247.97 340.625C1255.2 349.326 1261.11 359.313 1265.34 369.856C1251.71 341.726 1222.88 322.328 1189.53 322.328Z" stroke="url(#paint7_linear_113_43)" stroke-width="12.6203" stroke-linecap="round"/>
<path d="M1134.99 445H1165.58V438.286H1144.03C1144.03 433.238 1165.53 433.894 1165.53 420.618C1165.53 413.146 1160.23 409.158 1150.74 409.158C1141.25 409.158 1135.95 413.197 1135.95 421.476V422.94H1143.93V421.476C1143.93 418.245 1145.84 415.872 1150.74 415.872C1155.23 415.872 1157.56 417.538 1157.56 420.618C1157.56 429.149 1134.99 426.625 1134.99 439.397V445ZM1170.62 427.332C1170.62 438.034 1176.77 445.505 1187.43 445.505C1198.08 445.505 1204.24 438.034 1204.24 427.332C1204.24 416.63 1198.08 409.158 1187.43 409.158C1176.77 409.158 1170.62 416.63 1170.62 427.332ZM1195.91 427.332C1195.91 433.692 1193.03 438.437 1187.43 438.437C1181.82 438.437 1178.95 433.692 1178.95 427.332C1178.95 420.971 1181.82 416.226 1187.43 416.226C1193.03 416.226 1195.91 420.971 1195.91 427.332ZM1212.22 445H1218.88L1243.11 409.663H1236.45L1212.22 445ZM1207.78 417.841C1207.78 423.293 1211.11 426.524 1216.36 426.524C1221.61 426.524 1224.94 423.293 1224.94 417.841C1224.94 412.389 1221.61 409.158 1216.36 409.158C1211.11 409.158 1207.78 412.389 1207.78 417.841ZM1219.14 417.841C1219.14 419.961 1218.23 421.829 1216.36 421.829C1214.49 421.829 1213.58 419.961 1213.58 417.841C1213.58 415.721 1214.49 413.853 1216.36 413.853C1218.23 413.853 1219.14 415.721 1219.14 417.841ZM1247.56 436.822C1247.56 431.37 1244.22 428.139 1238.97 428.139C1233.72 428.139 1230.39 431.37 1230.39 436.822C1230.39 442.274 1233.72 445.505 1238.97 445.505C1244.22 445.505 1247.56 442.274 1247.56 436.822ZM1236.2 436.822C1236.2 434.702 1237.11 432.834 1238.97 432.834C1240.84 432.834 1241.75 434.702 1241.75 436.822C1241.75 438.942 1240.84 440.81 1238.97 440.81C1237.11 440.81 1236.2 438.942 1236.2 436.822Z" fill="#2030C4"/>
<path d="M1133.66 371H1140.9V369.322H1135.65V367.277H1140.08V365.662H1135.65V363.844H1140.9V362.166H1133.66V371ZM1144.6 367.959H1146.44L1148.38 371H1150.63L1148.43 367.567C1148.43 367.567 1150.01 367.126 1150.01 365.031C1150.01 363.087 1148.93 362.166 1146.39 362.166H1142.6V371H1144.6V367.959ZM1147.93 365.068C1147.93 365.927 1147.41 366.28 1146.39 366.28H1144.6V363.844H1146.39C1147.4 363.844 1147.93 364.198 1147.93 365.068ZM1151.96 371H1153.95V367.782H1158.18V366.166H1153.95V363.844H1159.06V362.166H1151.96V371ZM1169.11 366.583C1169.11 363.794 1167.35 362.04 1164.53 362.04C1161.72 362.04 1159.95 363.794 1159.95 366.583C1159.95 369.372 1161.72 371.126 1164.53 371.126C1167.35 371.126 1169.11 369.372 1169.11 366.583ZM1167.03 366.583C1167.03 368.135 1166.17 369.359 1164.53 369.359C1162.89 369.359 1162.03 368.135 1162.03 366.583C1162.03 365.031 1162.89 363.806 1164.53 363.806C1166.17 363.806 1167.03 365.031 1167.03 366.583ZM1177.98 369.258H1172.87V362.166H1170.88V371H1177.98V369.258ZM1183.1 367.996H1185.4C1185.4 367.996 1184.99 369.359 1183.07 369.359C1181.36 369.359 1180.63 368.135 1180.63 366.583C1180.63 365.031 1181.49 363.806 1183.13 363.806C1184.34 363.806 1185.12 364.475 1185.45 365.447H1187.6C1187.17 363.327 1185.54 362.04 1183.13 362.04C1180.32 362.04 1178.55 363.794 1178.55 366.583C1178.55 369.372 1180.25 371.126 1183 371.126C1184.95 371.126 1185.76 369.839 1185.76 369.839H1185.83V371H1187.64V366.457H1183.1V367.996ZM1196.89 364.702C1196.89 362.986 1195.53 362.04 1193.17 362.04C1190.81 362.04 1189.45 363.049 1189.45 364.639C1189.45 368.123 1195.18 366.861 1195.18 368.425C1195.18 369.221 1194.43 369.511 1193.24 369.511C1192.11 369.511 1191.3 369.258 1191.3 368.324V367.971H1189.22V368.287C1189.22 370.154 1190.67 371.126 1193.24 371.126C1195.73 371.126 1197.26 370.142 1197.26 368.413C1197.26 364.879 1191.53 366.368 1191.53 364.627C1191.53 363.958 1192.26 363.655 1193.17 363.655C1194.27 363.655 1194.81 364.071 1194.81 364.702V364.93H1196.89V364.702ZM1207.81 366.583C1207.81 363.794 1206.05 362.04 1203.23 362.04C1200.42 362.04 1198.65 363.794 1198.65 366.583C1198.65 369.359 1200.44 371.126 1203.18 371.126C1203.18 371.126 1204.49 373.65 1207.81 373.65V371.883C1205.91 371.883 1205.38 370.71 1205.38 370.71C1205.38 370.71 1207.81 369.839 1207.81 366.583ZM1205.73 366.583C1205.73 368.135 1204.87 369.359 1203.23 369.359C1201.59 369.359 1200.73 368.135 1200.73 366.583C1200.73 365.031 1201.59 363.806 1203.23 363.806C1204.87 363.806 1205.73 365.031 1205.73 366.583ZM1213.64 371.126C1215.97 371.126 1217.77 370.079 1217.77 367.82V362.166H1215.77V367.693C1215.77 368.943 1214.72 369.359 1213.64 369.359C1212.55 369.359 1211.51 368.943 1211.51 367.693V362.166H1209.51V367.82C1209.51 370.079 1211.3 371.126 1213.64 371.126ZM1228.63 366.583C1228.63 363.794 1226.86 362.04 1224.05 362.04C1221.23 362.04 1219.47 363.794 1219.47 366.583C1219.47 369.372 1221.23 371.126 1224.05 371.126C1226.86 371.126 1228.63 369.372 1228.63 366.583ZM1226.55 366.583C1226.55 368.135 1225.69 369.359 1224.05 369.359C1222.41 369.359 1221.55 368.135 1221.55 366.583C1221.55 365.031 1222.41 363.806 1224.05 363.806C1225.69 363.806 1226.55 365.031 1226.55 366.583ZM1229.19 363.907H1232.21V371H1234.2V363.907H1237.22V362.166H1229.19V363.907ZM1238.41 371H1245.66V369.322H1240.41V367.277H1244.84V365.662H1240.41V363.844H1245.66V362.166H1238.41V371ZM1133.17 389H1136.75C1139.62 389 1141.32 387.372 1141.32 384.583C1141.32 381.794 1139.62 380.166 1136.75 380.166H1133.17V389ZM1136.75 387.258H1135.16V381.907H1136.75C1138.41 381.907 1139.24 383.018 1139.24 384.583C1139.24 386.148 1138.41 387.258 1136.75 387.258ZM1143.09 389H1150.34V387.322H1145.09V385.277H1149.51V383.662H1145.09V381.844H1150.34V380.166H1143.09V389ZM1154.03 385.959H1155.88L1157.82 389H1160.07L1157.87 385.567C1157.87 385.567 1159.45 385.126 1159.45 383.031C1159.45 381.087 1158.36 380.166 1155.82 380.166H1152.04V389H1154.03V385.959ZM1157.36 383.068C1157.36 383.927 1156.85 384.28 1155.82 384.28H1154.03V381.844H1155.82C1156.83 381.844 1157.36 382.198 1157.36 383.068ZM1166.48 385.959H1168.32L1170.27 389H1172.51L1170.32 385.567C1170.32 385.567 1171.89 385.126 1171.89 383.031C1171.89 381.087 1170.81 380.166 1168.27 380.166H1164.49V389H1166.48V385.959ZM1169.81 383.068C1169.81 383.927 1169.29 384.28 1168.27 384.28H1166.48V381.844H1168.27C1169.28 381.844 1169.81 382.198 1169.81 383.068ZM1173.84 389H1181.08V387.322H1175.83V385.277H1180.26V383.662H1175.83V381.844H1181.08V380.166H1173.84V389ZM1181.97 381.907H1184.98V389H1186.98V381.907H1189.99V380.166H1181.97V381.907ZM1191.19 389H1198.44V387.322H1193.19V385.277H1197.62V383.662H1193.19V381.844H1198.44V380.166H1191.19V389ZM1205.63 389H1208.63V380.166H1206.64V386.034L1206.92 387.157H1206.73L1206.33 386.034L1203.14 380.166H1200.14V389H1202.14V383.132L1201.86 382.008H1202.05L1202.45 383.132L1205.63 389ZM1209.83 381.907H1212.85V389H1214.84V381.907H1217.86V380.166H1209.83V381.907ZM1225.14 380.166H1218.81V381.844H1220.98V387.322H1218.81V389H1225.14V387.322H1222.97V381.844H1225.14V380.166ZM1235.57 384.583C1235.57 381.794 1233.81 380.04 1230.99 380.04C1228.18 380.04 1226.41 381.794 1226.41 384.583C1226.41 387.372 1228.18 389.126 1230.99 389.126C1233.81 389.126 1235.57 387.372 1235.57 384.583ZM1233.49 384.583C1233.49 386.135 1232.63 387.359 1230.99 387.359C1229.35 387.359 1228.49 386.135 1228.49 384.583C1228.49 383.031 1229.35 381.806 1230.99 381.806C1232.63 381.806 1233.49 383.031 1233.49 384.583ZM1242.83 389H1245.83V380.166H1243.84V386.034L1244.11 387.157H1243.92L1243.52 386.034L1240.34 380.166H1237.34V389H1239.33V383.132L1239.05 382.008H1239.24L1239.65 383.132L1242.83 389Z" fill="#2030C4"/>
<g filter="url(#filter5_b_113_43)">
<path d="M-17 49.5826C34.3704 93.0841 231.109 259.687 334.661 347.376C373.389 380.173 428.546 384.729 472.205 358.856L604.712 280.328C641.051 258.793 686.079 258.123 723.043 278.568L881.92 366.445C918.959 386.932 964.089 386.215 1000.46 364.562L1131.6 286.482C1175.29 260.475 1230.66 265.071 1269.46 297.925L1606.75 583.551" stroke="url(#paint8_linear_113_43)" stroke-width="8" stroke-linecap="round"/>
</g>
<defs>
<filter id="filter0_b_113_43" x="283.967" y="98.7102" width="256.021" height="256.021" filterUnits="userSpaceOnUse" color-interpolation-filters="sRGB">
<feFlood flood-opacity="0" result="BackgroundImageFix"/>
<feGaussianBlur in="BackgroundImageFix" stdDeviation="23.0502"/>
<feComposite in2="SourceAlpha" operator="in" result="effect1_backgroundBlur_113_43"/>
<feBlend mode="normal" in="SourceGraphic" in2="effect1_backgroundBlur_113_43" result="shape"/>
</filter>
<filter id="filter1_b_113_43" x="258.789" y="73.7888" width="307.473" height="319.222" filterUnits="userSpaceOnUse" color-interpolation-filters="sRGB">
<feFlood flood-opacity="0" result="BackgroundImageFix"/>
<feGaussianBlur in="BackgroundImageFix" stdDeviation="32.1056"/>
<feComposite in2="SourceAlpha" operator="in" result="effect1_backgroundBlur_113_43"/>
<feBlend mode="normal" in="SourceGraphic" in2="effect1_backgroundBlur_113_43" result="shape"/>
</filter>
<filter id="filter2_b_113_43" x="537.857" y="265.122" width="256.021" height="256.021" filterUnits="userSpaceOnUse" color-interpolation-filters="sRGB">
<feFlood flood-opacity="0" result="BackgroundImageFix"/>
<feGaussianBlur in="BackgroundImageFix" stdDeviation="23.0502"/>
<feComposite in2="SourceAlpha" operator="in" result="effect1_backgroundBlur_113_43"/>
<feBlend mode="normal" in="SourceGraphic" in2="effect1_backgroundBlur_113_43" result="shape"/>
</filter>
<filter id="filter3_b_113_43" x="808.9" y="111.9" width="256.021" height="256.021" filterUnits="userSpaceOnUse" color-interpolation-filters="sRGB">
<feFlood flood-opacity="0" result="BackgroundImageFix"/>
<feGaussianBlur in="BackgroundImageFix" stdDeviation="23.0502"/>
<feComposite in2="SourceAlpha" operator="in" result="effect1_backgroundBlur_113_43"/>
<feBlend mode="normal" in="SourceGraphic" in2="effect1_backgroundBlur_113_43" result="shape"/>
</filter>
<filter id="filter4_b_113_43" x="1061.9" y="278.225" width="256.021" height="256.021" filterUnits="userSpaceOnUse" color-interpolation-filters="sRGB">
<feFlood flood-opacity="0" result="BackgroundImageFix"/>
<feGaussianBlur in="BackgroundImageFix" stdDeviation="23.0502"/>
<feComposite in2="SourceAlpha" operator="in" result="effect1_backgroundBlur_113_43"/>
<feBlend mode="normal" in="SourceGraphic" in2="effect1_backgroundBlur_113_43" result="shape"/>
</filter>
<filter id="filter5_b_113_43" x="-25" y="41.5826" width="1639.75" height="549.968" filterUnits="userSpaceOnUse" color-interpolation-filters="sRGB">
<feFlood flood-opacity="0" result="BackgroundImageFix"/>
<feGaussianBlur in="BackgroundImageFix" stdDeviation="2"/>
<feComposite in2="SourceAlpha" operator="in" result="effect1_backgroundBlur_113_43"/>
<feBlend mode="normal" in="SourceGraphic" in2="effect1_backgroundBlur_113_43" result="shape"/>
</filter>
<linearGradient id="paint0_linear_113_43" x1="475.452" y1="162.003" x2="353.166" y2="294.02" gradientUnits="userSpaceOnUse">
<stop stop-color="#AA00E5"/>
<stop offset="1" stop-color="#E961FF"/>
</linearGradient>
<linearGradient id="paint1_linear_113_43" x1="475.452" y1="163.578" x2="344.77" y2="295.971" gradientUnits="userSpaceOnUse">
<stop stop-color="#AA00E5"/>
<stop offset="1" stop-color="#E961FF"/>
</linearGradient>
<linearGradient id="paint2_linear_113_43" x1="728.452" y1="328.003" x2="606.166" y2="460.02" gradientUnits="userSpaceOnUse">
<stop stop-color="#4900E5"/>
<stop offset="1" stop-color="#61BDFF"/>
</linearGradient>
<linearGradient id="paint3_linear_113_43" x1="728.452" y1="316.792" x2="596.942" y2="449.193" gradientUnits="userSpaceOnUse">
<stop stop-color="#4900E5"/>
<stop offset="1" stop-color="#61BDFF"/>
</linearGradient>
<linearGradient id="paint4_linear_113_43" x1="999.452" y1="174.003" x2="877.166" y2="306.02" gradientUnits="userSpaceOnUse">
<stop stop-color="#AA00E5"/>
<stop offset="1" stop-color="#E961FF"/>
</linearGradient>
<linearGradient id="paint5_linear_113_43" x1="999.452" y1="175.744" x2="867.916" y2="308.145" gradientUnits="userSpaceOnUse">
<stop stop-color="#AA00E5"/>
<stop offset="1" stop-color="#E961FF"/>
</linearGradient>
<linearGradient id="paint6_linear_113_43" x1="1252.45" y1="341.003" x2="1130.17" y2="473.02" gradientUnits="userSpaceOnUse">
<stop stop-color="#4900E5"/>
<stop offset="1" stop-color="#61BDFF"/>
</linearGradient>
<linearGradient id="paint7_linear_113_43" x1="1252.45" y1="329.525" x2="1120.73" y2="461.928" gradientUnits="userSpaceOnUse">
<stop stop-color="#4900E5"/>
<stop offset="1" stop-color="#61BDFF"/>
</linearGradient>
<linearGradient id="paint8_linear_113_43" x1="785.866" y1="24.7913" x2="803.885" y2="608.342" gradientUnits="userSpaceOnUse">
<stop offset="0.229176" stop-color="#AA82FF"/>
<stop offset="1" stop-color="#BD00FF"/>
</linearGradient>
</defs>
</svg>
