<svg width="24" height="23" viewBox="0 0 24 23" fill="none" xmlns="http://www.w3.org/2000/svg">
<path d="M10.887 0.927052C11.1864 0.00574183 12.4898 0.00573993 12.7891 0.92705L14.8943 7.40616C15.0282 7.81819 15.4121 8.09715 15.8454 8.09715H22.6579C23.6266 8.09715 24.0294 9.33676 23.2457 9.90616L17.7342 13.9105C17.3838 14.1651 17.2371 14.6165 17.371 15.0285L19.4762 21.5076C19.7755 22.4289 18.721 23.1951 17.9373 22.6257L12.4259 18.6213C12.0754 18.3667 11.6008 18.3667 11.2503 18.6213L5.73882 22.6257C4.95511 23.1951 3.90063 22.4289 4.19998 21.5076L6.30517 15.0285C6.43904 14.6165 6.29239 14.1651 5.9419 13.9105L0.430439 9.90616C-0.353275 9.33676 0.0494993 8.09715 1.01822 8.09715H7.83076C8.26399 8.09715 8.64795 7.81819 8.78182 7.40616L10.887 0.927052Z" fill="#450AFF"/>
</svg>
